<svg width="814" height="652" viewBox="0 0 814 652" fill="none" xmlns="http://www.w3.org/2000/svg">
<g clip-path="url(#clip0_6_78)">
<path d="M14.845 301.404C26.865 288.364 38.895 275.314 50.915 262.274C51.415 261.724 51.885 261.154 52.395 260.614C66.575 245.474 80.755 230.334 94.945 215.184C97.905 214.574 100.765 213.984 103.635 213.384C107.955 208.694 108.145 202.494 110.125 198.614C110.925 195.044 108.545 194.164 108.155 191.324C107.995 187.824 113.745 183.514 108.265 179.154C115.135 164.224 118.645 148.394 126.805 133.334C131.015 149.584 134.865 164.424 138.875 179.914C138.135 180.824 136.995 182.234 135.795 183.704C135.415 186.354 138.655 186.804 138.875 190.794C136.815 193.864 136.545 198.554 140.655 202.764C141.005 202.814 141.365 202.944 141.695 202.904C159.515 200.694 172.765 191.214 184.145 177.744C194.645 165.314 207.435 154.944 217.655 142.174C219.005 140.484 220.485 138.684 222.785 138.364C227.445 138.634 224.995 143.334 227.395 145.294C228.235 145.054 229.325 144.944 230.205 144.454C238.955 139.604 246.515 133.024 254.035 126.624C260.015 121.534 266.355 118.884 273.435 118.404C284.355 107.654 294.875 97.2237 305.505 86.8937C308.335 84.1437 310.575 80.1937 316.415 81.0937C337.675 99.3137 359.525 118.034 380.805 136.274C387.745 137.814 393.365 135.404 398.845 133.544C403.305 132.034 407.245 131.834 411.715 133.094C421.235 135.784 430.875 138.034 440.625 140.504C452.945 130.624 465.425 120.864 477.585 110.724C481.625 107.354 485.875 104.674 490.585 102.464C498.985 98.5137 506.695 93.4937 513.085 86.6637C517.505 81.9337 522.835 78.9137 529.095 77.3137C537.065 75.2837 545.155 73.2837 545.505 62.9237C550.105 63.5337 551.715 66.3237 553.465 68.4737C569.815 88.4237 586.075 108.444 602.205 128.574C608.775 136.764 614.785 140.664 625.785 142.894C628.605 141.754 625.785 137.534 629.835 136.584C639.005 144.114 646.745 153.414 653.965 163.164C662.285 174.404 670.425 185.784 678.625 197.114C680.395 199.564 682.035 202.184 685.935 200.544C689.985 197.014 684.305 189.734 690.665 187.564C690.875 186.654 691.115 186.214 690.995 186.064C689.465 184.194 688.955 182.204 689.925 179.894C694.435 169.134 698.925 158.354 703.945 146.324C710.825 158.334 713.275 170.614 718.265 182.694C714.165 187.054 718.345 192.814 716.355 198.454C714.605 203.414 720.535 208.694 717.895 214.494C725.275 222.704 732.325 230.764 739.615 238.604C752.985 252.984 766.615 267.104 779.865 281.594C784.585 286.754 788.615 292.534 794.005 297.084C795.845 299.354 798.225 301.394 797.265 305.014C794.435 309.754 789.355 311.294 784.515 313.074C661.655 358.284 539.035 404.124 416.345 449.804C409.695 452.284 403.565 452.284 396.935 449.804C291.325 410.344 185.485 371.514 79.935 331.904C60.845 324.734 41.585 317.984 22.625 310.474C19.015 309.044 11.925 309.084 14.855 301.414L14.845 301.404Z" fill="#353535"/>
<path d="M14.845 301.404C14.935 302.494 15.025 303.574 15.115 304.734C38.745 313.574 62.315 322.384 85.885 331.204C106.775 339.014 127.665 346.824 148.565 354.614C171.485 363.154 194.405 371.694 217.345 380.194C234.545 386.564 251.785 392.814 268.985 399.204C291.915 407.714 314.805 416.344 337.745 424.834C354.945 431.204 372.195 437.444 389.415 443.764C395.155 445.874 400.855 448.054 406.575 450.214C434.945 439.854 463.185 429.154 491.615 418.964C526.165 406.594 560.225 392.864 594.565 379.884C617.105 371.364 639.745 363.134 662.345 354.774C685.615 346.164 708.895 337.544 732.165 328.924C749.025 322.684 765.785 316.114 782.825 310.404C787.705 308.774 792.005 306.434 796.605 304.354C795.675 301.754 794.835 299.404 793.985 297.064C797.655 297.054 798.085 300.964 800.695 301.904V355.994C788.505 360.604 776.425 365.224 764.305 369.754C740.685 378.584 717.215 387.884 693.355 396.024C668.475 404.524 644.175 414.524 619.435 423.384C595.695 431.884 572.285 441.314 548.475 449.584C531.465 455.494 514.655 461.914 497.795 468.204C474.855 476.764 451.865 485.214 428.945 493.824C422.865 496.104 416.435 497.394 410.715 500.674C408.015 502.214 405.225 501.784 402.295 500.694C368.875 488.304 335.185 476.584 302.015 463.534C267.465 449.934 232.545 437.304 197.775 424.364C172.865 415.094 147.985 405.614 122.845 396.864C87.475 384.554 52.475 371.184 17.335 358.214C15.675 357.604 14.225 356.434 12.405 355.354C12.405 338.354 12.405 321.314 12.385 304.284C12.385 302.554 13.025 301.534 14.815 301.404H14.845Z" fill="#929292"/>
<path d="M486.915 43.3437C488.405 61.7037 471.205 83.8537 444.745 84.8437C423.475 85.6337 401.805 63.7137 402.465 41.7537C403.075 21.4137 420.845 -1.1263 446.965 0.0436986C467.695 0.973699 488.385 19.1137 486.905 43.3437H486.915Z" fill="black"/>
<path d="M344.335 234.354C344.305 232.904 344.275 231.444 344.235 229.994C341.815 226.554 344.695 222.154 342.175 218.734C341.085 209.054 337.555 199.864 337.145 190.044C330.985 189.584 330.095 197.434 323.555 196.384C319.945 193.594 319.715 188.964 319.845 184.244C320.275 168.794 317.865 153.474 316.885 138.124C316.165 126.814 315.835 115.474 315.275 104.154C315.185 102.394 314.695 100.444 316.745 98.4836C320.355 99.2736 323.595 101.264 326.425 104.114C329.295 107.004 332.325 109.744 335.125 112.694C346.305 124.464 358.565 135.074 370.545 145.994C373.205 148.414 376.355 150.564 377.665 154.214L377.775 154.104C370.475 152.114 365.385 146.914 360.055 142.014C355.475 137.804 351.825 132.444 345.545 130.304C343.565 132.824 342.552 135.884 342.505 139.484C363.285 164.354 383.365 189.804 408.345 212.224C409.105 202.744 401.915 196.924 400.055 188.954C403.055 186.634 406.015 187.244 409.085 188.774C421.685 195.084 434.375 201.214 446.865 207.734C449.715 209.224 452.055 211.824 454.385 214.154C472.505 232.234 490.555 250.374 508.645 268.474C511.505 271.334 514.465 274.074 517.075 276.584C521.905 276.364 519.105 272.164 521.515 270.294C523.815 269.124 526.765 270.204 529.585 270.074C546.235 283.614 561.815 298.174 576.255 314.284C574.255 317.534 571.955 317.184 569.535 315.834C562.245 311.774 554.985 307.654 547.155 303.244C542.855 307.004 538.215 305.864 533.335 303.404C523.575 298.484 512.695 297.264 502.275 294.574C494.965 292.684 487.845 289.604 480.035 290.064C470.445 296.664 460.035 301.624 448.575 306.354C424.375 277.324 400.065 248.854 380.895 216.644C378.435 216.284 377.425 218.044 376.115 219.254C374.755 220.514 373.415 221.784 371.645 223.454C366.345 220.654 362.735 216.474 359.655 211.344C356.195 205.574 353.405 199.324 348.745 194.304L348.845 194.204C348.435 198.294 349.485 202.004 351.015 205.824C358.335 224.134 365.115 242.644 370.305 261.694C370.775 263.414 371.385 265.494 370.865 267.034C367.515 276.834 364.715 286.984 355.895 295.064C348.425 280.304 344.715 264.934 339.825 250.004C338.555 248.744 339.045 246.694 337.795 245.424C337.675 244.704 337.625 243.984 337.655 243.264C336.855 240.494 334.385 237.154 339.925 236.524C341.585 237.904 340.145 241.284 343.475 241.764C346.545 239.684 345.915 237.084 344.355 234.344L344.335 234.354Z" fill="#929292"/>
<path d="M600.015 243.054C595.445 243.054 592.905 240.024 592.055 237.344C587.245 222.124 579.345 208.264 573.285 193.594C566.785 177.854 558.135 163.014 550.595 147.694C549.055 144.564 546.045 141.754 547.455 137.394C551.485 135.404 555.555 136.104 560.195 138.244C560.875 130.024 555.565 122.384 559.225 113.654C574.015 132.524 582.385 155.374 598.865 171.834C601.475 172.094 603.345 172.584 604.865 170.304C602.425 163.284 597.255 156.604 598.555 147.384C611.305 157.374 618.635 171.644 631.385 180.874H639.115C642.225 183.754 645.235 186.624 647.565 190.624C658.335 209.104 669.675 227.244 680.665 245.584C683.225 249.854 688.185 252.564 688.855 259.374C669.465 254.794 650.195 251.544 632.175 257.064C615.715 245.924 609.555 227.694 594.975 215.004C592.695 226.064 601.285 233.654 599.995 243.034L600.015 243.054Z" fill="#929292"/>
<path d="M510.345 209.944C498.095 196.904 485.625 183.624 473.185 170.374C474.695 162.234 483.095 158.484 484.495 150.504C477.025 152.924 472.755 159.054 467.685 163.004C463.485 163.734 461.555 161.774 459.795 158.734C467.435 146.254 478.705 137.164 488.675 126.914C489.185 126.384 489.745 125.764 490.405 125.534C504.025 120.814 514.265 111.484 523.195 100.714C526.985 103.904 520.475 106.184 523.355 108.894C524.085 109.094 525.005 109.654 525.375 109.404C527.815 107.734 530.005 105.814 531.435 103.094C533.515 99.1437 536.765 96.3137 539.955 93.9037C543.685 95.3537 542.845 97.8437 542.045 99.6837C537.175 110.974 531.935 122.104 527.145 133.434C522.885 143.514 518.995 153.764 520.295 165.084C520.665 168.324 520.675 171.494 521.495 174.814C524.005 184.984 522.235 194.994 518.275 204.674C517.045 207.674 515.625 209.864 510.345 209.944Z" fill="#929292"/>
<path d="M288.775 144.034C286.315 150.954 281.805 157.284 282.195 164.884C288.425 163.614 287.625 155.054 295.245 154.074C292.915 165.734 287.565 175.464 283.995 186.554C287.795 191.914 286.055 197.284 283.215 203.334C276.365 217.914 267.265 230.984 257.835 243.874C249.025 255.914 239.925 267.744 230.905 279.634C230.545 280.104 229.725 280.214 228.895 280.594C228.225 276.504 228.625 272.934 230.105 268.864C234.645 256.384 237.965 243.464 242.475 230.964C244.095 226.464 244.445 222.594 242.725 218.354C241.565 215.494 242.645 212.724 242.755 209.894C243.215 197.204 251.595 188.674 258.285 179.424C266.605 167.914 275.835 157.044 284.745 145.964C285.515 145.014 286.225 143.524 288.775 144.034Z" fill="#929292"/>
<path d="M227.715 166.054C222.215 176.034 215.345 184.804 209.415 196.774C216.915 192.834 220.105 186.974 226.745 182.844C223.135 191.764 216.915 197.324 212.465 203.924C207.575 211.184 200.465 216.974 195.825 224.354C191.355 231.454 185.465 237.414 181.925 244.604C178.585 245.154 179.995 241.764 178.215 241.404C175.355 240.314 173.375 241.634 171.435 243.604C165.475 249.684 159.435 255.684 153.385 261.674C150.265 264.764 147.495 268.344 142.345 269.164C142.055 268.924 141.225 268.234 140.595 267.714C140.245 267.164 139.895 266.854 139.895 266.534C139.895 266.244 140.255 265.954 140.455 265.654C153.665 245.714 165.845 224.984 180.405 206.074C193.035 189.664 210.995 178.454 227.725 166.044L227.715 166.054Z" fill="#929292"/>
<path d="M339.915 236.544C335.795 237.654 338.405 241.034 337.645 243.284C333.415 235.144 330.915 223.714 331.605 213.344C336.485 221.414 339.465 228.484 339.915 236.544Z" fill="#929292"/>
<path d="M344.335 234.354C348.715 237.234 345.435 241.194 346.735 244.734C339.275 245.244 339.755 240.774 339.895 236.554C342.725 236.274 341.265 240.154 344.325 240.444V234.354H344.335Z" fill="#929292"/>
<path d="M342.185 218.734C346.585 221.804 343.395 226.274 344.245 229.994C339.915 226.904 343.035 222.454 342.185 218.734Z" fill="#929292"/>
<path d="M337.775 245.444C340.575 246.034 339.805 248.204 339.805 250.024C337.025 249.434 337.715 247.294 337.775 245.444Z" fill="#929292"/>
<path d="M377.675 154.224C378.485 154.404 379.585 154.264 379.245 155.694C377.815 156.024 377.935 154.944 377.785 154.114L377.675 154.224Z" fill="#929292"/>
<path d="M348.825 194.224C347.925 194.134 347.015 194.054 347.225 192.734C348.715 192.414 348.555 193.514 348.725 194.324L348.825 194.224Z" fill="#353535"/>
<path d="M273.744 587.946C270.134 590.696 269.114 594.276 267.754 597.546C264.494 605.366 259.824 612.446 256.404 619.936C254.574 620.616 253.484 619.886 252.944 618.536C250.244 611.736 246.354 605.506 243.364 598.896C241.814 595.476 240.054 592.346 237.954 589.226C235.994 589.816 236.644 591.526 236.984 592.486C237.974 595.256 238.044 597.896 237.064 600.656C236.744 601.546 236.844 602.606 236.844 603.596C236.824 609.586 236.814 615.586 236.844 621.576C236.844 622.876 236.544 624.226 237.374 625.446C237.624 625.816 237.774 626.436 237.654 626.856C235.624 633.706 239.014 640.556 237.284 648.026C236.764 648.596 235.754 649.686 234.604 650.946C231.824 649.586 228.844 651.186 226.284 650.716C223.294 650.166 220.364 650.706 217.174 649.956C216.834 649.556 215.824 648.916 215.854 648.316C216.064 643.506 213.964 638.766 214.944 634.056C215.804 629.926 215.524 625.856 215.684 621.756C215.804 618.586 215.134 615.466 215.604 612.226C216.074 608.966 216.114 605.516 215.604 602.266C214.724 596.666 214.814 591.076 214.854 585.466C214.874 583.026 214.804 580.626 215.524 578.136C216.124 576.056 216.184 573.516 215.274 571.296C214.874 570.326 214.804 569.486 215.074 568.456C216.084 564.576 215.774 560.736 215.154 556.776C214.604 553.226 215.034 549.526 215.034 545.676C216.074 543.936 217.914 542.916 220.034 542.256C224.994 544.156 229.974 543.196 234.794 542.116C237.724 544.216 239.354 546.936 240.784 549.946C243.404 555.456 246.244 560.866 249.004 566.296C250.824 569.866 252.954 573.316 254.294 577.136C258.184 576.456 258.294 572.706 259.474 570.416C261.894 565.696 264.064 560.826 267.084 556.446C267.844 555.346 267.724 554.276 267.844 552.806C271.304 550.836 270.794 545.896 274.184 543.366C278.224 542.956 282.344 543.536 286.394 542.326C288.554 541.686 290.684 544.016 293.264 543.016C294.144 543.916 294.944 544.736 295.644 545.456V647.456C292.914 651.786 288.184 651.756 283.944 650.926C281.374 650.426 279.214 650.396 277.114 651.206C275.484 650.746 274.734 649.636 273.744 648.456V587.976V587.946Z" fill="black"/>
<path d="M452.874 544.566C453.654 543.746 454.454 542.906 455.164 542.146C457.634 543.106 459.794 543.896 462.054 542.506C462.444 542.266 463.034 542.146 463.474 542.246C468.874 543.426 474.434 540.896 479.834 543.046C481.344 543.646 482.814 542.036 484.584 542.176C488.014 542.456 491.434 542.556 494.874 542.976C499.214 543.506 503.764 543.956 507.954 541.676C509.104 542.936 509.884 543.796 510.664 544.646V562.706C508.334 565.026 505.734 565.916 502.604 564.586C501.314 564.046 500.124 564.156 498.814 564.666C496.444 565.586 493.954 565.556 491.604 564.586C490.274 564.036 488.784 563.886 487.734 564.326C484.284 565.776 481.004 565.086 477.904 564.146C475.874 564.906 475.614 566.706 474.854 567.956V583.866C478.434 585.936 482.324 586.846 486.434 585.836C489.714 585.026 492.894 584.766 496.094 585.846C498.064 586.506 500.054 585.916 502.654 586.306C503.014 586.816 503.694 587.756 504.624 589.056V604.606C501.054 609.486 495.924 608.246 491.074 607.776C490.164 607.686 489.154 606.906 488.274 607.416C486.794 608.276 485.624 607.806 484.114 607.436C482.084 606.936 479.834 607.316 477.334 607.316C476.394 607.716 475.544 608.726 474.794 609.856C474.794 614.176 474.774 618.506 474.794 622.826C474.814 625.806 474.844 625.806 477.274 628.946C479.804 628.386 486.394 628.466 489.414 628.986C490.544 629.176 491.784 629.316 492.884 629.066C496.934 628.146 500.934 629.476 504.964 629.136C506.934 628.966 508.974 629.046 510.644 631.266V648.556C510.164 649.266 509.594 649.826 508.774 650.146C508.024 650.436 507.294 650.816 506.414 651.226C504.354 650.536 502.414 650.266 499.954 650.866C496.384 651.736 492.404 651.546 488.644 650.626C485.544 649.866 482.474 649.806 479.184 651.236C475.714 648.616 471.524 651.546 467.674 650.196C463.684 651.736 459.524 650.876 455.034 651.196C454.444 650.406 453.744 649.476 452.864 648.296V544.566H452.874Z" fill="black"/>
<path d="M793.774 542.026C796.384 542.976 798.754 543.916 801.454 542.416C802.564 541.796 804.324 541.926 805.754 542.696C807.634 543.716 809.524 543.326 811.484 542.406C813.684 544.456 813.304 547.066 812.144 549.176C809.074 554.746 807.124 560.756 804.604 566.546C800.414 576.176 795.424 585.426 791.484 595.206C789.704 599.626 788.684 603.816 788.684 608.426C788.684 621.076 788.684 633.726 788.684 646.396C787.264 649.316 784.524 650.336 780.964 651.136C779.784 650.986 778.164 649.576 776.014 650.916C774.874 651.626 772.924 651.026 771.264 650.526C769.384 649.956 767.974 649.176 766.694 647.276C766.694 633.976 766.644 620.346 766.734 606.716C766.754 603.696 766.104 600.946 764.814 598.236C762.464 593.296 760.784 588.016 758.494 583.126C756.174 578.176 754.084 573.056 751.314 568.326C750.554 567.026 750.014 565.856 749.664 564.366C748.804 560.716 747.234 557.226 745.104 554.166C743.354 551.646 743.154 548.676 741.884 546.056C741.434 545.126 741.524 543.736 743.154 542.456C745.714 541.016 748.554 544.016 751.684 543.286C754.684 542.586 757.974 544.066 760.924 542.126C764.854 545.126 767.004 549.176 768.904 553.526C770.844 557.966 772.274 562.676 775.034 566.716C776.014 568.146 775.234 570.596 778.074 571.216C781.074 567.016 782.644 561.936 784.804 557.146C787.154 551.916 788.304 545.946 793.794 542.036L793.774 542.026Z" fill="black"/>
<path d="M667.884 543.166C673.204 543.386 678.504 541.286 684.514 542.536C685.494 543.066 686.594 544.286 687.694 545.806V626.036C689.144 629.626 692.664 627.016 694.374 629.076C695.334 628.776 696.334 628.076 697.154 628.256C703.514 629.596 709.834 627.506 716.174 628.166C718.824 628.446 721.294 629.406 723.794 631.836C722.914 637.466 725.294 643.666 722.344 649.156C719.844 650.716 717.784 652.086 715.154 650.396C714.544 650.006 713.544 650.186 712.724 650.186C707.734 650.176 702.734 650.206 697.744 650.176C696.394 650.176 695.114 650.266 694.004 651.046C690.194 649.826 678.294 649.826 674.704 651.146C672.944 649.436 670.484 650.536 668.294 650.036C667.274 649.396 666.484 648.566 665.724 647.266C665.724 630.236 665.724 612.936 665.724 595.626C665.724 579.816 665.704 563.996 665.724 548.186C665.724 546.426 665.124 544.406 667.884 543.156V543.166Z" fill="black"/>
<path d="M406.874 623.076C408.624 619.086 407.604 614.886 407.634 610.806C407.654 608.326 407.144 605.966 404.734 603.956C402.694 602.256 400.814 600.156 398.794 598.596V593.976C399.704 592.836 400.704 592.016 401.714 591.146C405.984 587.476 408.914 583.176 407.244 577.116C407.114 576.656 406.844 576.116 406.984 575.736C408.584 571.366 407.264 566.856 407.714 562.436C407.984 559.756 406.894 557.646 405.014 555.836C403.234 554.116 401.634 552.286 400.144 550.276C397.044 546.076 392.844 542.526 387.574 542.376C373.454 541.956 359.314 542.236 345.194 542.236C344.304 543.166 343.504 543.996 342.774 544.766V647.926C343.904 649.476 344.594 650.416 345.154 651.196C359.174 651.196 372.824 650.966 386.454 651.316C391.394 651.446 394.884 649.586 397.374 645.906C398.794 643.816 400.464 642.056 402.164 640.316C404.364 638.066 406.384 635.746 407.704 633.006C407.644 629.596 407.994 626.286 406.874 623.096V623.076ZM385.664 625.546C384.854 627.046 383.424 627.946 382.374 628.906C379.604 630.006 377.384 627.866 374.934 628.246C372.524 628.616 370.204 629.706 367.234 628.936C366.414 628.566 365.624 627.496 364.764 626.496V609.926C365.424 608.806 366.334 607.866 367.324 607.296C368.984 606.676 369.894 608.276 371.704 608.156C373.244 607.516 375.074 606.676 377.334 607.906C379.104 608.866 381.184 608.116 383.024 607.136C383.944 607.986 384.794 608.766 385.664 609.576V625.546ZM385.704 582.396C385.304 583.466 384.264 584.266 383.084 585.136C378.054 585.136 372.934 585.136 367.814 585.136C366.434 584.746 365.744 583.576 364.814 582.666V567.086C365.534 564.886 367.694 564.276 369.544 563.296C373.864 564.816 378.354 563.906 383.194 564.306C384.274 564.906 385.064 565.726 385.704 566.886V582.386V582.396Z" fill="black"/>
<path d="M55.9239 604.886C55.7339 603.486 55.4839 602.346 56.2439 601.356C58.2839 599.396 60.2039 597.306 62.2039 595.296C64.0439 593.436 64.8739 591.256 64.8539 588.636C64.7939 580.306 64.8039 571.976 64.8139 563.646C64.8139 560.186 63.7039 557.306 61.1239 554.866C58.4839 552.376 55.8439 549.896 53.7639 546.836C52.1439 544.466 49.7339 542.846 46.6139 543.216C45.0339 543.406 43.7939 542.496 42.4539 542.286C40.0639 543.846 37.5339 543.556 35.1839 542.816C33.1939 542.186 31.4439 542.206 29.4539 542.756C27.0839 543.406 24.5239 543.526 22.1239 542.866C18.3739 541.836 14.6239 542.066 10.8939 542.676C10.0639 542.816 9.46391 542.886 8.62391 542.616C4.79391 541.406 1.91391 542.836 0.00390625 545.676V649.076C5.39391 651.656 10.9939 651.156 16.9639 651.196C18.6039 650.316 20.1739 649.466 21.8939 648.546V615.946C22.9739 614.226 24.4639 613.876 25.9139 613.206C27.9939 614.946 30.1539 614.096 32.3639 613.036C34.9439 614.716 37.6039 614.436 40.2339 613.226C42.2139 614.976 42.8939 617.026 42.8139 619.486C42.7139 622.486 42.8039 625.486 42.8139 628.476C42.8139 635.276 42.8139 642.076 42.8139 648.646C46.6139 650.986 51.1439 651.476 55.8439 650.166C57.7839 651.526 60.0839 651.166 62.3539 651.066C63.2439 650.136 64.0339 649.296 64.7939 648.496V615.506C63.0939 610.386 59.7939 607.266 55.9439 604.886H55.9239ZM42.7239 590.476C40.8139 591.816 38.9939 592.976 36.4639 591.616C34.8439 590.746 32.8339 590.866 31.1939 591.556C29.3939 592.316 27.6339 591.996 25.8639 592.216C24.5739 591.506 23.0439 591.216 21.8239 589.396C21.8239 583.466 21.8239 577.036 21.8239 570.596C21.8239 567.396 23.4039 565.356 26.9439 564.246C28.2939 565.356 30.3439 565.866 31.5039 565.066C33.8439 563.446 36.2839 566.476 38.3339 564.436C39.8939 565.316 41.7139 565.846 42.7239 568.216V590.476Z" fill="black"/>
<path d="M610.784 604.706C610.714 603.256 610.504 601.936 611.084 600.386C613.794 598.826 616.114 596.486 618.424 593.866C618.644 592.106 619.824 590.466 619.794 588.386C619.694 580.226 619.844 572.056 619.684 563.896C619.614 560.606 618.584 557.476 616.134 555.026C613.074 551.966 610.024 548.886 606.984 545.796C605.284 544.066 603.324 543.236 600.844 543.146C596.424 542.986 591.944 543.796 587.564 542.316C586.444 541.936 585.024 542.046 583.684 542.636C581.514 543.586 578.924 543.646 576.864 542.976C574.374 542.156 571.984 542.356 569.544 542.266C567.214 542.186 564.874 542.356 562.554 542.206C559.314 541.996 556.744 543.046 554.924 545.606V648.916C558.554 650.736 562.894 651.276 571.984 651.136C573.891 650.089 575.507 648.729 576.834 647.056V615.806C577.814 614.716 578.534 613.566 580.234 613.156C582.464 614.576 584.964 614.596 587.574 612.866C590.034 615.396 592.734 613.846 595.154 613.406C596.754 614.406 597.014 615.956 597.814 617.466V648.726C598.354 649.196 598.894 650.046 599.324 649.996C602.504 649.596 605.544 652.616 608.834 650.306C609.364 649.936 610.614 650.046 611.224 650.426C613.114 651.596 615.084 650.996 616.954 651.126C618.104 650.256 619.144 649.436 619.704 648.216V616.626C618.354 611.076 614.114 608.176 610.754 604.716L610.784 604.706ZM597.704 590.066C597.084 590.606 596.214 591.366 595.004 592.416C590.064 590.796 584.924 591.226 580.344 592.386C578.504 591.666 577.654 590.676 576.814 589.496V567.886C577.874 566.376 579.114 565.286 580.664 564.156C584.474 565.686 588.474 565.096 593.524 564.556C594.604 564.836 596.404 565.866 597.704 567.896V590.076V590.066Z" fill="black"/>
<path d="M171.904 637.376C170.674 630.186 168.174 623.316 167.524 615.936C167.024 610.236 164.684 604.706 163.264 599.076C162.034 594.206 160.534 589.356 159.914 584.406C159.454 580.726 158.404 577.426 157.054 574.636C156.304 564.686 152.244 555.886 151.494 546.436C149.384 543.986 147.054 541.606 143.554 542.326C141.324 542.786 139.064 542.216 137.094 542.686C134.774 543.236 132.464 542.556 130.214 543.326C129.014 544.386 128.174 545.546 127.504 547.216C126.684 549.276 126.774 551.386 126.204 553.426C123.844 562.016 122.004 570.746 119.694 579.356C118.054 585.476 117.744 591.826 115.894 597.936C113.834 604.746 112.514 611.776 110.934 618.726C108.924 627.576 107.124 636.476 104.894 645.276C104.394 647.246 103.764 650.036 107.144 651.246C109.244 649.946 111.724 650.076 114.204 650.106C116.034 650.126 117.874 650.056 119.704 650.126C122.074 650.216 124.284 649.886 126.084 648.276C127.694 646.326 127.854 644.056 127.694 641.906C129.754 639.116 132.324 638.206 135.534 638.066C140.354 637.866 144.954 639.126 149.384 639.346C151.864 641.546 151.834 644.246 151.844 646.926C153.644 648.306 154.764 650.236 156.794 651.226C161.824 649.316 167.024 650.686 172.154 650.046C173.164 649.296 174.174 648.456 174.784 647.036C173.824 643.886 172.474 640.706 171.904 637.386V637.376ZM142.924 616.086H136.644C135.604 615.676 134.894 614.756 134.154 613.906C136.304 607.176 136.634 600.036 139.184 593.436C140.124 593.916 140.434 595.086 140.524 595.816C141.194 601.296 143.394 606.376 144.564 611.716C144.934 613.406 144.974 615.026 142.914 616.086H142.924Z" fill="black"/>
</g>
<defs>
<clipPath id="clip0_6_78">
<rect width="813.08" height="651.427" fill="white"/>
</clipPath>
</defs>
</svg>
